<?xml version="1.0" standalone="no"?><!DOCTYPE svg PUBLIC "-//W3C//DTD SVG 1.1//EN" "http://www.w3.org/Graphics/SVG/1.1/DTD/svg11.dtd"><svg t="1605616191636" class="icon" viewBox="0 0 1024 1024" version="1.1" xmlns="http://www.w3.org/2000/svg" p-id="4466" xmlns:xlink="http://www.w3.org/1999/xlink" width="200" height="200"><defs><style type="text/css"></style></defs><path d="M288.010434 866.41695h488.565421a17.141194 17.141194 0 0 1 17.141194 17.141193v121.810125a11.924309 11.924309 0 0 1-11.924309 11.924308H276.086125a56.971697 56.971697 0 0 1-56.888889-56.723273v-24.84231a68.813197 68.813197 0 0 1 68.813198-68.813197z" fill="#93D8CA" p-id="4467"></path><path d="M793.799856 898.049491a7.20427 7.20427 0 0 1-6.044962-8.28077V15.81627H219.197236c-41.403849 0-74.526929 43.88808-74.526928 97.795892v776.570597a7.20427 7.20427 0 0 1-6.044962 8.28077 7.20427 7.20427 0 0 1-6.044962-8.28077V113.612162C132.745999 50.926735 171.500002 0 219.197236 0h574.685428a7.20427 7.20427 0 0 1 6.044962 8.28077v881.901989a7.20427 7.20427 0 0 1-6.12777 7.866732z" fill="#69494D" p-id="4468"></path><path d="M793.799856 1024H219.197236C171.500002 1024 132.745999 981.519651 132.745999 929.267993v-47.697234C132.745999 829.319101 171.500002 786.673136 219.197236 786.673136h574.685428a6.376193 6.376193 0 0 1 6.044962 6.624616v223.580786a6.376193 6.376193 0 0 1-6.12777 7.121462z m-574.685427-223.580786c-41.403849 0-74.526929 36.601003-74.526929 81.482775v47.697235c0 44.96458 33.123079 81.482775 74.526929 81.482775h568.723273V800.087983zM609.635535 325.185832H323.203706c-14.40854 0-26.084425-15.402232-26.084425-34.365195V186.648552c0-18.962963 11.758693-34.365195 26.084425-34.365194h286.431829c14.40854 0 26.084425 15.402232 26.084425 34.365194v104.172085c0.082808 18.962963-11.675885 34.365195-26.084425 34.365195zM323.203706 168.182436a16.56154 16.56154 0 0 0-14.077309 18.466116v104.172085a16.56154 16.56154 0 0 0 14.077309 18.466117h286.431829a16.56154 16.56154 0 0 0 14.077309-18.466117V186.648552a16.56154 16.56154 0 0 0-14.077309-18.466116zM219.197236 647.63901a7.20427 7.20427 0 0 1-6.044962-8.28077V8.28077a7.20427 7.20427 0 0 1 6.044962-8.28077 7.20427 7.20427 0 0 1 6.044962 8.28077v631.82274a7.20427 7.20427 0 0 1-6.044962 7.5355z" fill="#69494D" p-id="4469"></path><path d="M793.799856 873.041566H330.573591a6.624616 6.624616 0 0 1 0-13.249232h463.226265a6.624616 6.624616 0 0 1 0 13.249232zM793.799856 946.243571H240.396007a6.624616 6.624616 0 0 1 0-13.249232h553.403849a6.624616 6.624616 0 0 1 0 13.249232zM844.892206 624.204432h-51.09235a8.28077 8.28077 0 0 1 0-15.816271H844.892206c18.797348 0 34.199579-20.122271 34.19958-44.881773V248.423096c0-24.84231-15.319424-44.881773-34.19958-44.881773h-49.684619a8.28077 8.28077 0 0 1 0-15.81627h49.684619c25.504771 0 46.206696 27.243733 46.206696 60.78085V563.09235c0.414038 33.868349-20.370694 61.112082-46.206696 61.112082z" fill="#69494D" p-id="4470"></path><path d="M885.467979 310.694485H795.207587a8.28077 8.28077 0 0 1 0-15.816271h90.260392a8.28077 8.28077 0 0 1 0 15.816271zM885.467979 422.319262H795.207587a8.28077 8.28077 0 0 1 0-15.81627h90.260392a8.28077 8.28077 0 0 1 0 15.81627zM885.467979 524.421155H795.207587a8.28077 8.28077 0 0 1 0-15.816271h90.260392a8.28077 8.28077 0 0 1 0 15.816271z" fill="#69494D" p-id="4471"></path></svg>